<svg xmlns="http://www.w3.org/2000/svg" xmlns:xlink="http://www.w3.org/1999/xlink" viewBox="0 0 240 240"><defs><style>.cls-1{fill:url(#linear-gradient);}.cls-2{fill:#fff;}.cls-3{fill:#eaeaea;}.cls-4{fill:#b1b1b2;}.cls-5{fill:#e2e2e2;}.cls-6{fill:#c4c4c4;}</style><linearGradient id="linear-gradient" y1="120" x2="240" y2="120" gradientUnits="userSpaceOnUse"><stop offset="0" stop-color="#1f1960"/><stop offset="1" stop-color="#091750"/></linearGradient></defs><g id="Layer_2" data-name="Layer 2"><g id="Layer_1-2" data-name="Layer 1"><g id="Layer_2-2" data-name="Layer 2"><g id="Layer_1-2-2" data-name="Layer 1-2"><g id="Layer_2-2-2" data-name="Layer 2-2"><g id="Layer_1-2-2-2" data-name="Layer 1-2-2"><rect class="cls-1" width="240" height="240" rx="26"/><path class="cls-2" d="M42.59,156.73a4.23,4.23,0,0,1,1.23-2.87c7.51-8.08,29.51-15.36,34.2-16.56L43.09,110.66s-.79-33-.51-33.73l80.5,50,.43-.29v79.77a.59.59,0,0,1-.53.58,4.94,4.94,0,0,0-2.31,1.43.58.58,0,0,1-.67.09c-6-3.16-77.31-42-77.27-42.65"/><path class="cls-3" d="M197.21,76.7a1,1,0,0,1,.17.82c-.87,8.5-22.68,23.89-34.23,24.08a.58.58,0,0,0-.54.62h0a.57.57,0,0,0,.18.38c9.42,7.86,25.71,15.85,34.45,23.69l.24,30.36c0,.91,0,6-.08,8.82-1.23,2.26-75.41,42.8-76.87,43.28-.29-27.39-.7-54.74-1-82.12"/><path class="cls-2" d="M161.33,101.24l-40.91,27L42.59,77c.87-.76,75.89-45.74,77.24-45.74,1.55,0,76.3,44.93,77.2,45.44L161.76,101"/><path class="cls-4" d="M120.5,113.75a.58.58,0,0,1-.3.5c-13.81,7.61-27.76,15.42-41.59,23a1.94,1.94,0,0,1-.81.27l-.5.09-.84-.22a1,1,0,0,1-.21-.09c-1.61-1.23-24.45-18.5-31.59-23.93A5.12,5.12,0,0,1,43,109.14a33.68,33.68,0,0,1,.92-5.37v-.35l.08-.13c3.68-4.37,8.84-8.33,14.33-11.81,4.77-2.84,8.41-5.1,13.77-6.68a26.27,26.27,0,0,1,9.12-1.06c3.3-.06,9.71,1.57,9.71,1.57h-.12l18.52,7.37c2.61,1,8.52,3.19,11,4.12a.59.59,0,0,1,.38.55Z"/><path class="cls-5" d="M197.16,125.57c0-.58,0-1.07-.47-1.41-8.2-5.47-31-20.27-34.59-22.6l-.41-.25a.56.56,0,0,0-.31-.09h-1c-3.6.11-6.91-.15-11.73-.31a118.23,118.23,0,0,1-23.16-3.09c-1.57-.4-3.12-.79-4.63-1.23l-.24-.08-.1,16.86a.6.6,0,0,0,.29.51l61.52,35.83a.64.64,0,0,0,.54,0c5.43-2.43,7.74-5.27,11.08-9.15h0a29.57,29.57,0,0,0,3.25-5.36.57.57,0,0,0,0-.26l-.08-9.37Z"/><path class="cls-6" d="M78.23,137.38l1.94-.13h0a30.09,30.09,0,0,1,9.69,1.54h0l18.4,7.37a117,117,0,0,0,40,8.59c6.47.21,10.14.6,15.41,0a63.73,63.73,0,0,0,17.47-4.27.59.59,0,0,0,.25-.8h0a.7.7,0,0,0-.18-.2l-60.48-35.67a.57.57,0,0,0-.59,0Z"/></g></g></g></g></g></g></svg>